<svg xmlns="http://www.w3.org/2000/svg" version="1.1" xmlns:xlink="http://www.w3.org/1999/xlink" width="128" height="128" x="0" y="0" viewBox="0 0 96 96" style="enable-background:new 0 0 512 512" xml:space="preserve"><g><path d="M92 16H4a2 2 0 0 0-2 2v59a2 2 0 0 0 2 2h88a2 2 0 0 0 2-2V18a2 2 0 0 0-2-2zm-5.486 4-30.79 25.892a11.977 11.977 0 0 1-15.447 0L9.486 20zM90 72.946 63.217 52.413a2 2 0 0 0-2.434 3.175L86.104 75H9.896l25.321-19.413a2 2 0 1 0-2.434-3.175L6 72.946V22.295l31.702 26.659c5.89 4.953 14.706 4.953 20.596 0L90 22.295z" fill="#747479" opacity="1" data-original="#000000"></path></g></svg>