<svg xmlns="http://www.w3.org/2000/svg" version="1.1" xmlns:xlink="http://www.w3.org/1999/xlink" width="512" height="512" x="0" y="0" viewBox="0 0 32 32" style="enable-background:new 0 0 512 512" xml:space="preserve" fill-rule="evenodd" class=""><g><path d="M31 6.2c0-.583-.232-1.143-.644-1.556A2.205 2.205 0 0 0 28.8 4H3.2c-.583 0-1.143.232-1.556.644A2.205 2.205 0 0 0 1 6.2v19.6c0 .583.232 1.143.644 1.556.413.412.973.644 1.556.644h25.6c.583 0 1.143-.232 1.556-.644.412-.413.644-.973.644-1.556zM3 10v15.8c0 .053.021.104.059.141A.197.197 0 0 0 3.2 26h25.6a.197.197 0 0 0 .141-.059A.197.197 0 0 0 29 25.8V11h-6.717c-.341 0-.678-.08-.984-.232l-1.493-.747a.197.197 0 0 0-.089-.021zm26-1V6.2a.197.197 0 0 0-.059-.141A.197.197 0 0 0 28.8 6H3.2a.197.197 0 0 0-.141.059A.197.197 0 0 0 3 6.2V8h16.717c.341 0 .678.08.984.232l1.493.747a.197.197 0 0 0 .089.021z" fill="#E7E7E7" opacity="1" data-original="#000000" class=""></path><path d="m9.086 16.5-.793.793a1 1 0 0 0 1.414 1.414l.793-.793.793.793a1 1 0 0 0 1.414-1.414l-.793-.793.793-.793a1 1 0 0 0-1.414-1.414l-.793.793-.793-.793a1 1 0 0 0-1.414 1.414zM20.086 16.5l-.793.793a1 1 0 0 0 1.414 1.414l.793-.793.793.793a1 1 0 0 0 1.414-1.414l-.793-.793.793-.793a1 1 0 0 0-1.414-1.414l-.793.793-.793-.793a1 1 0 0 0-1.414 1.414zM11.553 22.894l1.463.732c.619.31 1.349.31 1.968 0l.927-.463a.2.2 0 0 1 .178 0l.927.463c.619.31 1.349.31 1.968 0l1.463-.732a1 1 0 1 0-.894-1.788l-1.464.731a.2.2 0 0 1-.178 0l-.927-.463a2.199 2.199 0 0 0-1.968 0l-.927.463a.2.2 0 0 1-.178 0l-1.464-.731a1 1 0 1 0-.894 1.788z" fill="#E7E7E7" opacity="1" data-original="#000000" class=""></path></g></svg>