<svg xmlns="http://www.w3.org/2000/svg" version="1.1" xmlns:xlink="http://www.w3.org/1999/xlink" width="128" height="128" x="0" y="0" viewBox="0 0 512 512" style="enable-background:new 0 0 512 512" xml:space="preserve" class=""><g><path d="M370.249 0h-228.5a37.082 37.082 0 0 0-37.04 37.04v437.921A37.082 37.082 0 0 0 141.751 512h228.5a37.082 37.082 0 0 0 37.04-37.039V37.04A37.082 37.082 0 0 0 370.249 0zm-228.5 24h228.5a13.055 13.055 0 0 1 13.04 13.04v372.454H128.711V37.04A13.055 13.055 0 0 1 141.751 24zm228.5 464h-228.5a13.054 13.054 0 0 1-13.04-13.039v-41.467h254.58v41.467A13.054 13.054 0 0 1 370.249 488zM216.143 61.336a12 12 0 0 1 12-12h54.075a12 12 0 0 1 0 24h-54.075a12 12 0 0 1-12-12zm66.144 399.411a12 12 0 0 1-12 12h-28.574a12 12 0 0 1 0-24h28.574a12 12 0 0 1 12 12z" fill="#747479" opacity="1" data-original="#000000"></path></g></svg>