<svg xmlns="http://www.w3.org/2000/svg" version="1.1" xmlns:xlink="http://www.w3.org/1999/xlink" width="32" height="32" x="0" y="0" viewBox="0 0 64 64" style="enable-background:new 0 0 512 512" xml:space="preserve" class=""><g><path fill="#E73B36" d="M1 39v8.2C1 50.6 3.7 53 7 53h50c3.3 0 6-2.4 6-5.8V39z" opacity="1" data-original="#e73b36" class=""></path><path fill="#F0F7F6" d="M57 11H7c-3.3 0-6 2.4-6 5.8V25h62v-8.2c0-3.4-2.7-5.8-6-5.8z" opacity="1" data-original="#f0f7f6"></path><path fill="#3757A6" d="M1 25h62v14H1z" opacity="1" data-original="#3757a6"></path><path fill="#D31C1C" d="M56.8 53c3.3 0 6.2-2.4 6.2-5.8V39H40.4z" opacity="1" data-original="#d31c1c"></path><path fill="#DFF2EF" d="M57 11H7l16.6 14H63v-8.2c0-3.4-2.7-5.8-6-5.8z" opacity="1" data-original="#dff2ef"></path><path fill="#20448E" d="M40.5 39H63V25H23.5z" opacity="1" data-original="#20448e"></path><path fill="#CAEAE4" d="M57 11H7l46.3 14H63v-8.2c0-3.4-2.7-5.8-6-5.8z" opacity="1" data-original="#caeae4" class=""></path><path fill="#103577" d="M63 27.8V25H52.8z" opacity="1" data-original="#103577"></path><path fill="#C41010" d="M63 47.1c0 3.7-2.7 5.9-6 5.9H7c-3.3 0-6-2.6-6-6" opacity="1" data-original="#c41010"></path></g></svg>