<svg xmlns="http://www.w3.org/2000/svg" version="1.1" xmlns:xlink="http://www.w3.org/1999/xlink" width="512" height="512" x="0" y="0" viewBox="0 0 58 58" style="enable-background:new 0 0 512 512" xml:space="preserve" class="hovered-paths"><g><g fill="none" fill-rule="nonzero"><rect width="58" height="58" fill="#636363" rx="5" opacity="1" data-original="#547580" class="hovered-path"></rect><path fill="#46494C" d="M58 5v7H0V5a5 5 0 0 1 5-5h48a5 5 0 0 1 5 5z" opacity="1" data-original="#4482c3" class=""></path><circle cx="6" cy="6" r="2" fill="#9C9C9C" opacity="1" data-original="#f3d55b" class=""></circle><circle cx="14" cy="6" r="2" fill="#9A9A9A" opacity="1" data-original="#ff5364" class=""></circle><circle cx="22" cy="6" r="2" fill="#9A9A9A" opacity="1" data-original="#65ddb9" class=""></circle><path fill="#BCBCBC" d="M52 8a2 2 0 1 0 0-4H42a2 2 0 1 0 0 4z" opacity="1" data-original="#ffffff" class=""></path><path fill="#838383" d="M10 55a1 1 0 0 1-1-1V16a1 1 0 0 1 2 0v38a1 1 0 0 1-1 1z" opacity="1" data-original="#9fc9d3" class=""></path><path fill="#929292" d="M6 18H4a1 1 0 0 1 0-2h2a1 1 0 0 1 0 2z" opacity="1" data-original="#fb7b76" class=""></path><path fill="#BEBEBE" d="M25 18H14a1 1 0 0 1 0-2h11a1 1 0 0 1 0 2z" opacity="1" data-original="#f0c419" class=""></path><path fill="#929292" d="M6 23H4a1 1 0 0 1 0-2h2a1 1 0 0 1 0 2z" opacity="1" data-original="#fb7b76" class=""></path><path fill="#BEBEBE" d="M30 23H14a1 1 0 0 1 0-2h16a1 1 0 0 1 0 2z" opacity="1" data-original="#f0c419" class=""></path><path fill="#929292" d="M6 28H4a1 1 0 0 1 0-2h2a1 1 0 0 1 0 2z" opacity="1" data-original="#fb7b76" class=""></path><path fill="#838383" d="M20 28h-6a1 1 0 0 1 0-2h6a1 1 0 0 1 0 2z" opacity="1" data-original="#9fc9d3" class=""></path><path fill="#929292" d="M6 33H4a1 1 0 0 1 0-2h2a1 1 0 0 1 0 2z" opacity="1" data-original="#fb7b76" class=""></path><path fill="#BEBEBE" d="M25 33H14a1 1 0 0 1 0-2h11a1 1 0 0 1 0 2z" opacity="1" data-original="#f0c419" class=""></path><path fill="#929292" d="M6 38H4a1 1 0 0 1 0-2h2a1 1 0 0 1 0 2z" opacity="1" data-original="#fb7b76" class=""></path><path fill="#838383" d="M30 38H14a1 1 0 0 1 0-2h16a1 1 0 0 1 0 2z" opacity="1" data-original="#9fc9d3" class=""></path><path fill="#929292" d="M6 43H4a1 1 0 0 1 0-2h2a1 1 0 0 1 0 2z" opacity="1" data-original="#fb7b76" class=""></path><path fill="#BEBEBE" d="M37 43H14a1 1 0 0 1 0-2h23a1 1 0 0 1 0 2z" opacity="1" data-original="#f0c419" class=""></path><path fill="#929292" d="M6 53H4a1 1 0 0 1 0-2h2a1 1 0 0 1 0 2z" opacity="1" data-original="#fb7b76" class=""></path><path fill="#838383" d="M37 53H14a1 1 0 0 1 0-2h23a1 1 0 0 1 0 2z" opacity="1" data-original="#9fc9d3" class=""></path><path fill="#929292" d="M6 48H4a1 1 0 0 1 0-2h2a1 1 0 0 1 0 2z" opacity="1" data-original="#fb7b76" class=""></path><path fill="#BEBEBE" d="M23 48h-9a1 1 0 0 1 0-2h9a1 1 0 0 1 0 2zM37 23h-3a1 1 0 0 1 0-2h3a1 1 0 0 1 0 2z" opacity="1" data-original="#f0c419" class=""></path><path fill="#838383" d="M48 23h-7a1 1 0 0 1 0-2h7a1 1 0 0 1 0 2zM54 23h-2a1 1 0 0 1 0-2h2a1 1 0 0 1 0 2z" opacity="1" data-original="#9fc9d3" class=""></path><path fill="#BEBEBE" d="M42 33H29a1 1 0 0 1 0-2h13a1 1 0 0 1 0 2z" opacity="1" data-original="#f0c419" class=""></path><g fill="#9FC9D3"><path d="M49 33h-3a1 1 0 0 1 0-2h3a1 1 0 0 1 0 2zM47 38H34a1 1 0 0 1 0-2h13a1 1 0 0 1 0 2zM53 38h-2a1 1 0 0 1 0-2h2a1 1 0 0 1 0 2z" fill="#838383" opacity="1" data-original="#9fc9d3" class=""></path></g><path fill="#BEBEBE" d="M44 43h-3a1 1 0 0 1 0-2h3a1 1 0 0 1 0 2z" opacity="1" data-original="#f0c419" class=""></path><path fill="#838383" d="M53 43h-5a1 1 0 0 1 0-2h5a1 1 0 0 1 0 2zM42 48H27a1 1 0 0 1 0-2h15a1 1 0 0 1 0 2zM52 48h-6a1 1 0 0 1 0-2h6a1 1 0 0 1 0 2z" opacity="1" data-original="#9fc9d3" class=""></path></g></g></svg>