<svg width="128" height="128" viewBox="0 0 428 512" fill="none" xmlns="http://www.w3.org/2000/svg">
<path d="M210.352 246.633C244.234 246.633 273.569 234.48 297.546 210.503C321.515 186.531 333.671 157.199 333.671 123.313C333.671 89.4368 321.519 60.1019 297.542 36.1209C273.565 12.152 244.23 0 210.352 0C176.465 0 147.132 12.152 123.16 36.1249C99.1878 60.0979 87.0308 89.4338 87.0308 123.313C87.0308 157.199 99.1868 186.535 123.161 210.508C147.141 234.477 176.477 246.633 210.351 246.633H210.352ZM144.379 57.3399C162.773 38.9449 184.352 30.0039 210.352 30.0039C236.348 30.0039 257.929 38.9449 276.327 57.3399C294.722 75.7379 303.667 97.3198 303.667 123.312C303.667 149.312 294.722 170.891 276.327 189.289C257.929 207.688 236.348 216.629 210.352 216.629C184.359 216.629 162.782 207.684 144.379 189.289C125.98 170.895 117.035 149.313 117.035 123.313C117.035 97.3198 125.98 75.7379 144.379 57.3399ZM426.128 393.702C425.436 383.726 424.038 372.842 421.979 361.351C419.901 349.772 417.226 338.827 414.022 328.823C410.71 318.483 406.214 308.273 400.647 298.487C394.877 288.331 388.097 279.487 380.487 272.21C372.53 264.597 362.788 258.476 351.522 254.011C340.296 249.571 327.854 247.321 314.546 247.321C309.319 247.321 304.265 249.465 294.503 255.82C287.564 260.339 280.605 264.826 273.624 269.28C266.917 273.554 257.831 277.558 246.608 281.183C235.66 284.726 224.543 286.523 213.566 286.523C202.598 286.523 191.48 284.726 180.523 281.183C169.313 277.561 160.223 273.558 153.527 269.284C145.757 264.319 138.727 259.788 132.629 255.815C122.875 249.461 117.82 247.316 112.594 247.316C99.2808 247.316 86.8438 249.57 75.6208 254.016C64.3629 258.472 54.6169 264.593 46.6519 272.214C39.0429 279.495 32.2619 288.334 26.4959 298.487C20.938 308.272 16.438 318.479 13.125 328.827C9.92498 338.831 7.24999 349.772 5.17199 361.351C3.10899 372.827 1.715 383.714 1.023 393.714C0.342999 403.491 0 413.667 0 423.948C0 450.675 8.49598 472.311 25.2499 488.268C41.7969 504.016 63.6879 511.999 90.3158 511.999H336.847C363.467 511.999 385.358 504.015 401.909 488.269C418.667 472.323 427.163 450.679 427.163 423.944C427.159 413.628 426.812 403.452 426.128 393.702ZM381.222 466.53C370.288 476.936 355.772 481.995 336.842 481.995H90.3168C71.3839 481.995 56.8679 476.936 45.9379 466.535C35.2159 456.327 30.0049 442.394 30.0049 423.948C30.0049 414.354 30.3209 404.882 30.9549 395.788C31.5709 386.866 32.8329 377.065 34.7049 366.651C36.5519 356.366 38.9029 346.714 41.6999 337.976C44.3839 329.596 48.0439 321.3 52.5829 313.308C56.9149 305.69 61.8989 299.155 67.3989 293.89C72.5439 288.964 79.0288 284.933 86.6688 281.91C93.7348 279.112 101.677 277.581 110.298 277.35C111.348 277.91 113.22 278.976 116.251 280.952C122.419 284.972 129.528 289.558 137.388 294.577C146.248 300.226 157.661 305.327 171.298 309.729C185.239 314.237 199.458 316.526 213.571 316.526C227.685 316.526 241.907 314.237 255.84 309.733C269.488 305.323 280.898 300.226 289.77 294.569C297.813 289.429 304.723 284.976 310.89 280.952C313.922 278.979 315.793 277.909 316.844 277.351C325.469 277.581 333.41 279.112 340.48 281.909C348.117 284.933 354.602 288.968 359.746 293.889C365.246 299.151 370.23 305.687 374.562 313.312C379.105 321.3 382.77 329.601 385.449 337.972C388.25 346.722 390.605 356.37 392.449 366.647C394.316 377.081 395.582 386.886 396.199 395.792V395.8C396.836 404.858 397.156 414.327 397.16 423.948C397.156 442.398 391.945 456.328 381.223 466.53H381.222Z" fill="#2B2B2C" style="fill:#2B2B2C;fill:color(display-p3 0.1686 0.1686 0.1725);fill-opacity:1;"/>
</svg>
