<svg xmlns="http://www.w3.org/2000/svg" version="1.1" xmlns:xlink="http://www.w3.org/1999/xlink" width="128" height="128" x="0" y="0" viewBox="0 0 24 24" style="enable-background:new 0 0 512 512" xml:space="preserve" fill-rule="evenodd" class=""><g><path d="M15.75 12V6.5a2.25 2.25 0 0 0-2.25-2.25H5A1.75 1.75 0 0 0 3.25 6v2.5a.75.75 0 0 0 1.5 0V6A.25.25 0 0 1 5 5.75h8.5c.199 0 .39.079.53.22.141.14.22.331.22.53V12a.75.75 0 0 0 1.5 0z" fill="#2B2B2C" opacity="1" data-original="#000000" class=""></path><path d="M20.75 12V3A1.75 1.75 0 0 0 19 1.25h-8A1.75 1.75 0 0 0 9.25 3v2a.75.75 0 0 0 1.5 0V3a.25.25 0 0 1 .25-.25h8a.25.25 0 0 1 .25.25v9a.75.75 0 0 0 1.5 0zM6 16.25h3a.75.75 0 0 0 0-1.5H6a.75.75 0 0 0 0 1.5zM6 18.75h3a.75.75 0 0 0 0-1.5H6a.75.75 0 0 0 0 1.5z" fill="#2B2B2C" opacity="1" data-original="#000000" class=""></path><path d="M20 22.75A2.751 2.751 0 0 0 22.75 20v-6A2.751 2.751 0 0 0 20 11.25h-4.971c-.403 0-.782-.195-1.017-.523l-1.303-1.825a2.751 2.751 0 0 0-2.238-1.152H4a2.751 2.751 0 0 0-2.75 2.75V20A2.751 2.751 0 0 0 4 22.75zm0-1.5H4c-.69 0-1.25-.56-1.25-1.25v-9.5c0-.69.56-1.25 1.25-1.25h6.471c.403 0 .782.195 1.017.523l1.303 1.825a2.751 2.751 0 0 0 2.238 1.152H20c.69 0 1.25.56 1.25 1.25v6c0 .69-.56 1.25-1.25 1.25z" fill="#2B2B2C" opacity="1" data-original="#000000" class=""></path></g></svg>