<svg xmlns="http://www.w3.org/2000/svg" version="1.1" xmlns:xlink="http://www.w3.org/1999/xlink" width="128" height="128" x="0" y="0" viewBox="0 0 32 32" style="enable-background:new 0 0 512 512" xml:space="preserve" class=""><g><g data-name="57-Resume"><path d="m26.71 8.29-6-6A1 1 0 0 0 20 2H8a3 3 0 0 0-3 3v22a3 3 0 0 0 3 3h16a3 3 0 0 0 3-3V9a1 1 0 0 0-.29-.71zM21 5.41 23.59 8H22a1 1 0 0 1-1-1zM24 28H8a1 1 0 0 1-1-1V5a1 1 0 0 1 1-1h11v3a3 3 0 0 0 3 3h3v17a1 1 0 0 1-1 1z" fill="#2B2B2C" opacity="1" data-original="#000000"></path><path d="M13 13a3 3 0 1 0-3-3 3 3 0 0 0 3 3zm0-4a1 1 0 1 1-1 1 1 1 0 0 1 1-1zM10 20h6a1 1 0 0 0 1-1v-2a3 3 0 0 0-3-3h-2a3 3 0 0 0-3 3v2a1 1 0 0 0 1 1zm1-3a1 1 0 0 1 1-1h2a1 1 0 0 1 1 1v1h-4zM22 23H10a1 1 0 0 0 0 2h12a1 1 0 0 0 0-2zM22 18h-2a1 1 0 0 0 0 2h2a1 1 0 0 0 0-2zM22 13h-2a1 1 0 0 0 0 2h2a1 1 0 0 0 0-2z" fill="#2B2B2C" opacity="1" data-original="#000000"></path></g></g></svg>